<svg width="35" height="35" viewBox="0 0 35 35" fill="none" xmlns="http://www.w3.org/2000/svg">
<path d="M11.5785 3.57876C11.1684 3.98898 10.938 4.54528 10.938 5.12533C10.938 5.70537 11.1684 6.26167 11.5785 6.67189L22.4066 17.5L11.5785 28.3281C11.18 28.7407 10.9595 29.2933 10.9645 29.8668C10.9695 30.4404 11.1996 30.989 11.6051 31.3946C12.0107 31.8002 12.5594 32.0303 13.1329 32.0352C13.7065 32.0402 14.259 31.8197 14.6716 31.4213L27.0463 19.0466C27.4564 18.6364 27.6868 18.0801 27.6868 17.5C27.6868 16.92 27.4564 16.3637 27.0463 15.9535L14.6716 3.57876C14.2614 3.16867 13.7051 2.93829 13.125 2.93829C12.545 2.93829 11.9887 3.16867 11.5785 3.57876V3.57876Z" fill="white"/>
</svg>
