<svg width="17" height="17" viewBox="0 0 17 17" fill="none" xmlns="http://www.w3.org/2000/svg">
<path d="M6.91662 0.583336C5.9259 0.583866 4.94912 0.816811 4.0648 1.26345C3.18047 1.71009 2.41325 2.35796 1.82482 3.15499C1.23638 3.95203 0.843139 4.876 0.676693 5.85263C0.510246 6.82927 0.57524 7.83133 0.86645 8.77828C1.15766 9.72523 1.66697 10.5907 2.35343 11.305C3.03989 12.0194 3.88437 12.5627 4.81898 12.8914C5.7536 13.22 6.75228 13.3248 7.73477 13.1974C8.71725 13.0699 9.65613 12.7138 10.476 12.1575L14.39 16.0683C14.4987 16.185 14.6298 16.2786 14.7754 16.3435C14.9211 16.4084 15.0783 16.4433 15.2378 16.4461C15.3972 16.4489 15.5556 16.4196 15.7035 16.3599C15.8513 16.3001 15.9857 16.2112 16.0984 16.0985C16.2112 15.9857 16.3001 15.8514 16.3598 15.7035C16.4195 15.5557 16.4489 15.3973 16.4461 15.2378C16.4432 15.0784 16.4083 14.9212 16.3434 14.7755C16.2785 14.6298 16.185 14.4987 16.0683 14.39L12.1575 10.476C12.8045 9.52376 13.1797 8.41316 13.2427 7.26364C13.3058 6.11411 13.0544 4.96913 12.5154 3.95182C11.9765 2.9345 11.1704 2.08333 10.1839 1.48982C9.19747 0.896312 8.06787 0.582919 6.91662 0.583336ZM2.95829 6.91667C2.95829 5.86685 3.37532 4.86004 4.11765 4.11771C4.85999 3.37537 5.8668 2.95834 6.91662 2.95834C7.96643 2.95834 8.97325 3.37537 9.71558 4.11771C10.4579 4.86004 10.875 5.86685 10.875 6.91667C10.875 7.96649 10.4579 8.9733 9.71558 9.71563C8.97325 10.458 7.96643 10.875 6.91662 10.875C5.8668 10.875 4.85999 10.458 4.11765 9.71563C3.37532 8.9733 2.95829 7.96649 2.95829 6.91667Z" fill="black" fill-opacity="0.5"/>
</svg>
